<svg width="556" height="12" viewBox="0 0 556 12" fill="none" xmlns="http://www.w3.org/2000/svg">
<path d="M531.835 6.11133H278.058V7.11133H531.835V6.11133Z" fill="url(#paint0_linear_273_5015)"/>
<path d="M277.87 6.11133H24.0928V7.11133H277.87V6.11133Z" fill="url(#paint1_linear_273_5015)"/>
<path d="M3.09157 9.14615C3.05818 9.21163 2.99635 9.25942 2.90023 9.28117C2.80546 9.30144 2.67663 9.2895 2.53289 9.22252C2.39007 9.15597 2.23776 9.02393 2.13329 8.8375C2.02701 8.65235 1.98008 8.41749 2.00603 8.19053C2.01551 8.07556 2.05612 7.93285 2.12585 7.78226C2.19624 7.63166 2.30207 7.47723 2.43745 7.34007C2.57193 7.20206 2.73461 7.08111 2.90971 6.9864C3.08458 6.89148 3.27118 6.82301 3.45259 6.77843C3.6349 6.7362 3.81113 6.71678 3.97043 6.71294C4.0503 6.71252 4.12567 6.71465 4.19584 6.71913C4.26624 6.72638 4.331 6.73214 4.38989 6.74195C4.44878 6.75283 4.50158 6.76372 4.54761 6.77438C4.59364 6.78547 4.6329 6.79976 4.66494 6.81128C4.72879 6.83517 4.76309 6.85629 4.76241 6.87293C4.76196 6.88764 4.72609 6.90663 4.66426 6.92882C4.59522 6.95164 4.5097 6.98001 4.41245 7.01222C4.36123 7.02971 4.30663 7.05167 4.24886 7.07194C4.19178 7.09498 4.13244 7.12037 4.07197 7.14703C3.95193 7.20356 3.82963 7.27138 3.71591 7.3486C3.60354 7.42816 3.5011 7.51776 3.41739 7.61141C3.33345 7.70505 3.26825 7.80253 3.22289 7.89361C3.17686 7.98448 3.15114 8.06873 3.13828 8.13741C3.13286 8.15448 3.13264 8.17091 3.12993 8.18605C3.12722 8.20141 3.12406 8.2157 3.12406 8.22893C3.12293 8.24215 3.12136 8.25453 3.11933 8.26604C3.11933 8.27735 3.11865 8.28759 3.11729 8.29719C3.10895 8.37334 3.10172 8.43456 3.09676 8.49599C3.09157 8.557 3.08728 8.62397 3.09451 8.69778C3.10511 8.8456 3.15881 9.01304 3.09157 9.14615Z" fill="url(#paint2_linear_273_5015)"/>
<path d="M1.8824 6.81785C2.87949 6.44115 4.26174 6.37673 4.44406 6.36969C4.45579 6.36926 4.46437 6.36308 4.46459 6.35562L4.95739 5.97208C5.02259 5.92131 5.02598 5.8281 4.96483 5.77307L4.50137 5.35797C4.5016 5.35051 4.49347 5.34389 4.48174 5.34261C4.30055 5.32363 3.0318 5.18903 1.95957 4.72658C1.95122 4.72295 0.35935 5.49726 0.0260838 5.67239C-0.00753615 5.69009 -0.00888849 5.72656 0.0233776 5.74661C0.34288 5.9435 1.87383 6.82105 1.8824 6.81785Z" fill="url(#paint3_linear_273_5015)"/>
<path d="M3.33913 2.43066C3.3107 2.36304 3.25249 2.31142 3.15817 2.28347C3.06498 2.25702 2.93569 2.26044 2.78722 2.31782C2.63988 2.37477 2.4781 2.49657 2.36009 2.67554C2.2405 2.85344 2.1762 3.08445 2.18545 3.31269C2.18635 3.42787 2.21636 3.57292 2.27503 3.72799C2.33414 3.88285 2.42846 4.0439 2.55324 4.18959C2.67734 4.33613 2.83054 4.46774 2.99819 4.57354C3.16562 4.67977 3.3468 4.76041 3.52438 4.81694C3.70331 4.87112 3.8775 4.90205 4.03612 4.91634C4.11555 4.9221 4.19113 4.92486 4.26131 4.92508C4.33193 4.92252 4.39714 4.92103 4.45671 4.91505C4.51628 4.90801 4.56975 4.90077 4.61646 4.89309C4.66317 4.88498 4.70356 4.87345 4.73605 4.86407C4.80148 4.84444 4.83736 4.82567 4.83781 4.80904C4.83849 4.79432 4.80396 4.77299 4.74417 4.74675C4.67693 4.71924 4.5939 4.68554 4.49913 4.64693C4.44926 4.62624 4.39647 4.60064 4.34028 4.57654C4.285 4.54987 4.22769 4.52065 4.16947 4.48993C4.05395 4.42573 3.93684 4.35001 3.82921 4.26532C3.72316 4.17851 3.62749 4.08251 3.55078 3.98333C3.47383 3.88435 3.41607 3.78282 3.37771 3.68896C3.33845 3.59532 3.31905 3.50956 3.31115 3.44024C3.30709 3.42296 3.30799 3.40654 3.30641 3.39118C3.30483 3.37582 3.3028 3.36131 3.3037 3.34809C3.3037 3.33465 3.3028 3.32228 3.30167 3.31076C3.30257 3.29967 3.30258 3.28922 3.30213 3.27962C3.29942 3.20304 3.29693 3.14161 3.29648 3.08018C3.29581 3.01896 3.29648 2.95176 3.30912 2.8786C3.33033 2.73142 3.39621 2.56781 3.33913 2.43066Z" fill="url(#paint4_linear_273_5015)"/>
<path d="M4.86839 2.48818C4.82461 2.45085 4.81288 2.3828 4.83228 2.28617C4.85146 2.18933 4.9011 2.06369 4.98707 1.91629C5.02859 1.84142 5.08026 1.76207 5.14141 1.67803C5.20075 1.5927 5.2716 1.50397 5.35238 1.41139C5.51281 1.2256 5.7143 1.02424 5.97243 0.826498C6.22943 0.628548 6.54284 0.431247 6.9262 0.273399C7.3091 0.11939 7.76805 0.00484062 8.26377 0.00078776C8.75927 -0.010091 9.27576 0.0922882 9.75162 0.271681C10.227 0.453419 10.6668 0.706413 11.0633 0.996726C11.4631 1.28576 11.9302 1.70234 12.4058 2.21364C12.8839 2.72366 13.374 3.32691 13.8742 3.96918C14.3756 4.61017 14.8873 5.29446 15.4388 5.9346C15.5769 6.09394 15.7172 6.25093 15.8614 6.40088C15.9339 6.47533 16.0063 6.54978 16.0803 6.62081C16.1175 6.65835 16.1534 6.69077 16.1886 6.72191C16.2245 6.7537 16.259 6.78676 16.2958 6.81791C16.5923 7.06406 16.9316 7.27716 17.2978 7.43906C17.6622 7.60394 18.0483 7.72532 18.4357 7.80232C18.8227 7.87997 19.2108 7.9205 19.5835 7.91879C20.3306 7.91965 21.0123 7.77096 21.5495 7.5536C21.8196 7.44673 22.0545 7.32281 22.2512 7.19781C22.4514 7.07622 22.61 6.95016 22.7415 6.84628C22.8675 6.73749 22.9681 6.65131 23.0335 6.58966C23.1012 6.52973 23.143 6.50072 23.154 6.50797C23.1637 6.51437 23.1459 6.55874 23.1026 6.63831C23.0615 6.71958 22.9859 6.82943 22.8817 6.96786C22.772 7.10118 22.6321 7.26308 22.4435 7.42626C22.2582 7.59264 22.0276 7.76414 21.7517 7.92157C21.2032 8.24004 20.4701 8.50177 19.6289 8.59754C19.2087 8.64746 18.7631 8.65151 18.3057 8.6097C17.8484 8.56853 17.3793 8.47489 16.9174 8.32024C16.4544 8.16922 16.0015 7.94866 15.5819 7.66432C15.5297 7.62827 15.4794 7.58966 15.428 7.55212C15.3761 7.51415 15.3258 7.47617 15.2806 7.43906C15.1863 7.36461 15.0961 7.28825 15.006 7.21168C14.8269 7.05788 14.6567 6.89982 14.4907 6.74069C13.83 6.1029 13.2483 5.44804 12.7021 4.85206C12.158 4.25479 11.6526 3.71406 11.1957 3.27635C10.7401 2.83651 10.3342 2.50289 10.0215 2.27678C9.70943 2.04748 9.39737 1.86233 9.0957 1.7273C8.79312 1.59569 8.50227 1.514 8.21955 1.4884C7.93705 1.45768 7.65907 1.48413 7.38875 1.53916C7.11912 1.59782 6.86031 1.68869 6.62204 1.78916C6.38309 1.88856 6.16512 1.99884 5.97062 2.09953C5.87292 2.14944 5.78064 2.19657 5.69557 2.24201C5.61412 2.28275 5.53424 2.32286 5.45549 2.36232C5.15901 2.50438 4.95774 2.56497 4.86839 2.48818Z" fill="url(#paint5_linear_273_5015)"/>
<path d="M10.0579 6.1179C10.2176 6.09678 10.3625 6.54878 10.7097 7.11661C10.7542 7.18636 10.7998 7.25888 10.8544 7.32778C10.9036 7.40073 10.9654 7.46665 11.0238 7.53747C11.1491 7.67207 11.2914 7.80112 11.4568 7.91183C11.7856 8.13516 12.2159 8.28 12.7166 8.32458C12.9657 8.34762 13.3041 8.35379 13.7064 8.30665C14.1078 8.25781 14.5722 8.15862 15.0526 7.99032C15.5271 7.82863 16.0375 7.57735 16.5693 7.32458C17.1018 7.07202 17.6619 6.80646 18.2521 6.63155C18.839 6.45258 19.4473 6.37088 19.9963 6.40522C20.5498 6.43551 21.0166 6.5603 21.4054 6.64776C21.5999 6.6949 21.7757 6.7303 21.9314 6.76294C22.087 6.79174 22.2227 6.81115 22.3343 6.83056C22.5579 6.85168 22.687 6.87088 22.6881 6.88709C22.689 6.90117 22.5627 6.921 22.3301 6.94447C22.2148 6.94745 22.0722 6.95129 21.9083 6.94681C21.7454 6.93849 21.5593 6.92805 21.3587 6.90693C20.9566 6.87088 20.4873 6.80796 19.997 6.83654C19.5042 6.86064 18.9812 6.98692 18.4744 7.19724C17.9649 7.40372 17.4676 7.6966 16.9646 7.99139C16.4603 8.28597 15.9558 8.59036 15.4141 8.82137C14.8815 9.05153 14.3493 9.20256 13.8655 9.28554C13.3813 9.36723 12.9449 9.37554 12.6103 9.34419C12.2757 9.31347 11.9451 9.24074 11.6398 9.12171C11.3343 9.00354 11.0563 8.83844 10.828 8.64518C10.5987 8.45235 10.4203 8.23455 10.2844 8.02061C10.2215 7.91097 10.1594 7.80645 10.1168 7.70043C10.0674 7.59655 10.0331 7.49416 10.0026 7.39625C9.88324 7.00419 9.87737 6.68317 9.89768 6.46475C9.92814 6.24546 9.9841 6.12579 10.0579 6.1179Z" fill="url(#paint6_linear_273_5015)"/>
<path d="M19.3243 9.68951C19.3223 9.64237 19.3665 9.59459 19.4459 9.54873C19.4856 9.52569 19.5341 9.50329 19.5905 9.48174C19.6465 9.45807 19.7097 9.43396 19.7794 9.41114C20.0585 9.31728 20.4328 9.21383 20.8347 9.08136C21.0346 9.01268 21.3607 8.90517 21.7169 8.72728C22.0744 8.55215 22.4548 8.29874 22.7901 8.02357C22.8747 7.95552 22.9528 7.883 23.0324 7.81517C23.0674 7.78147 23.1024 7.74776 23.1369 7.71427C23.1707 7.68035 23.2016 7.64281 23.2337 7.60825C23.358 7.46448 23.4677 7.3205 23.5665 7.20148C23.6658 7.08202 23.7556 6.9886 23.8239 6.92973C23.8952 6.87256 23.9379 6.84546 23.9462 6.85272C23.9537 6.85912 23.9311 6.90413 23.8873 6.97623C23.8458 7.05067 23.7894 7.15797 23.7247 7.29235C23.6597 7.42738 23.5859 7.58927 23.4866 7.76717C23.4602 7.81132 23.4354 7.85719 23.4052 7.90284C23.3738 7.94785 23.3418 7.99562 23.3084 8.04085C23.24 8.12553 23.1725 8.21554 23.0967 8.30193C22.798 8.65005 22.4263 8.99007 22.0493 9.23686C21.6743 9.48643 21.3065 9.64599 21.075 9.72492C20.6079 9.87914 20.1587 9.91646 19.8405 9.89023C19.7607 9.88297 19.6887 9.87402 19.6255 9.86165C19.5623 9.84736 19.5082 9.83135 19.4637 9.81365C19.3753 9.77866 19.3265 9.73665 19.3243 9.68951Z" fill="url(#paint7_linear_273_5015)"/>
<path d="M4.61723 9.2821C4.712 9.21149 4.9083 9.28508 5.19396 9.44613C5.26955 9.49071 5.34627 9.53593 5.42456 9.58201C5.50602 9.63299 5.59469 9.6861 5.68856 9.7422C5.87516 9.85547 6.08432 9.98004 6.3156 10.0948C6.54598 10.2108 6.79733 10.3183 7.06201 10.3947C7.32736 10.4675 7.60286 10.5122 7.88694 10.5001C8.17079 10.4933 8.46705 10.4308 8.77843 10.3196C9.08958 10.2049 9.41427 10.0408 9.74258 9.83264C10.0713 9.62765 10.5005 9.32134 10.987 8.91222C11.4746 8.50523 12.0179 7.99862 12.6039 7.43804C13.1919 6.87875 13.8198 6.26314 14.5252 5.6695C14.7023 5.52146 14.8837 5.37492 15.0737 5.23286C15.1691 5.16225 15.265 5.09166 15.3645 5.02361C15.4122 4.98948 15.4652 4.95492 15.52 4.92037C15.5742 4.88624 15.6272 4.85082 15.682 4.8184C16.1222 4.56136 16.5909 4.37066 17.0645 4.24972C17.5374 4.12536 18.0129 4.06244 18.4729 4.05113C18.933 4.0394 19.3782 4.07247 19.7945 4.1499C20.6284 4.30092 21.3421 4.61085 21.8667 4.96601C22.1307 5.14199 22.3485 5.32885 22.5211 5.50781C22.6973 5.68379 22.8246 5.85529 22.9238 5.9965C23.017 6.14241 23.0836 6.25759 23.1174 6.34206C23.1538 6.42504 23.1671 6.47132 23.1553 6.47772C23.1452 6.48348 23.1071 6.45106 23.0448 6.386C22.9852 6.31924 22.892 6.22602 22.7749 6.10828C22.6517 5.99522 22.5033 5.85806 22.3126 5.72283C22.1255 5.58439 21.9001 5.44467 21.6379 5.31946C21.1169 5.06584 20.4461 4.87194 19.6993 4.82352C19.3265 4.79749 18.9357 4.81244 18.5431 4.8647C18.1503 4.91632 17.7554 5.01229 17.379 5.1535C17.0011 5.2913 16.6464 5.48243 16.3319 5.70918C16.2928 5.73798 16.2558 5.76869 16.2179 5.79813C16.1805 5.82693 16.1423 5.85721 16.1022 5.89219C16.023 5.95832 15.9451 6.02807 15.8675 6.09761C15.7127 6.23797 15.5611 6.3858 15.4117 6.53575C14.8149 7.13899 14.2549 7.78851 13.7081 8.39559C13.1626 9.00415 12.6301 9.5739 12.1158 10.0517C11.6041 10.5306 11.1077 10.9158 10.6875 11.1778C10.2706 11.4412 9.81342 11.6645 9.3256 11.8145C8.83754 11.9621 8.31497 12.0302 7.82128 11.9866C7.32691 11.9499 6.87766 11.8053 6.50694 11.6266C6.13622 11.4438 5.83793 11.2264 5.59627 11.0118C5.35326 10.7974 5.16711 10.5833 5.0209 10.3875C4.94711 10.2898 4.88303 10.1965 4.83023 10.1076C4.77518 10.0197 4.7296 9.93717 4.69372 9.85974C4.61881 9.70722 4.57842 9.57859 4.56646 9.48068C4.55405 9.38362 4.57075 9.31665 4.61723 9.2821Z" fill="url(#paint8_linear_273_5015)"/>
<path d="M10.0619 6.00456C9.98878 5.99197 9.94185 5.8689 9.92809 5.6477C9.92403 5.42863 9.95336 5.10866 10.1016 4.72535C10.1393 4.62978 10.181 4.52975 10.2379 4.42949C10.2884 4.32647 10.3579 4.22642 10.4288 4.12126C10.5802 3.9167 10.774 3.71129 11.017 3.53403C11.2591 3.35634 11.5486 3.2098 11.862 3.11232C12.1754 3.01377 12.5105 2.963 12.8465 2.95447C13.1827 2.9453 13.6175 2.98199 14.0945 3.09504C14.571 3.20916 15.0911 3.39451 15.6058 3.6588C16.1297 3.92437 16.611 4.26097 17.0927 4.58755C17.5731 4.91412 18.0479 5.23836 18.5404 5.47726C19.0301 5.71979 19.5416 5.87978 20.0305 5.93609C20.5163 5.99688 20.989 5.9651 21.3929 5.95593C21.5947 5.94846 21.7813 5.95038 21.9446 5.95316C22.1087 5.95977 22.2506 5.97342 22.3657 5.98451C22.596 6.0244 22.7206 6.05405 22.7183 6.07004C22.7165 6.08412 22.5863 6.09329 22.3616 6.09841C22.2485 6.10972 22.1116 6.11974 21.9541 6.13788C21.7961 6.15985 21.6181 6.18332 21.4205 6.21745C21.026 6.27846 20.5515 6.37209 19.998 6.36612C19.4486 6.36441 18.8489 6.24347 18.2769 6.02696C17.7013 5.8143 17.162 5.5131 16.6491 5.22663C16.1369 4.93994 15.6457 4.65624 15.1839 4.46405C14.7166 4.26503 14.2605 4.13598 13.8634 4.06111C13.4654 3.98774 13.1272 3.97216 12.8769 3.97856C12.3742 3.99008 11.9345 4.10633 11.5899 4.30727C11.4166 4.40688 11.2652 4.52612 11.1303 4.65219C11.0669 4.71917 11.0001 4.78082 10.9457 4.85036C10.8861 4.91563 10.8354 4.98474 10.7857 5.05151C10.3974 5.5948 10.2196 6.03613 10.0619 6.00456Z" fill="url(#paint9_linear_273_5015)"/>
<path d="M7.3392 7.00564C7.94481 7.02569 8.45294 6.57774 8.47415 6.00522C8.49536 5.4327 8.02152 4.95234 7.41591 4.93229C6.8103 4.91224 6.30217 5.36019 6.28096 5.93271C6.25975 6.50522 6.73359 6.98559 7.3392 7.00564Z" fill="url(#paint10_linear_273_5015)"/>
<path d="M25.171 7.54053C25.7143 7.55845 26.1701 7.15657 26.1891 6.64292C26.208 6.12928 25.7829 5.6984 25.2396 5.68026C24.6963 5.66235 24.2405 6.06422 24.2213 6.57787C24.2026 7.09173 24.6277 7.52261 25.171 7.54053Z" fill="url(#paint11_linear_273_5015)"/>
<path d="M19.5669 3.12194C19.5726 3.07502 19.6242 3.03641 19.7152 3.00697C19.7607 2.99225 19.816 2.97967 19.8801 2.96964C19.944 2.96154 20.0166 2.95727 20.0967 2.95535C20.416 2.95023 20.8614 3.01699 21.3161 3.20171C21.5412 3.29578 21.8966 3.47859 22.2529 3.75162C22.6114 4.02189 22.9583 4.38515 23.231 4.75183C23.3003 4.84291 23.3612 4.9372 23.4233 5.02615C23.4533 5.0735 23.482 5.12341 23.5102 5.17034C23.537 5.21791 23.5584 5.26527 23.5817 5.31113C23.6679 5.49521 23.7295 5.66181 23.7839 5.80089C23.838 5.93933 23.8861 6.05002 23.9213 6.12745C23.9589 6.20275 23.977 6.24968 23.968 6.25629C23.9601 6.26226 23.9206 6.23176 23.8545 6.16969C23.7913 6.10633 23.7089 6.00693 23.6191 5.8813C23.5296 5.75608 23.431 5.60528 23.3172 5.4532C23.2879 5.41651 23.2597 5.37704 23.2283 5.34099C23.1963 5.30537 23.1638 5.26954 23.1313 5.23327C23.0566 5.16053 22.9837 5.08288 22.9043 5.00972C22.5896 4.71322 22.2276 4.43592 21.8835 4.23818C21.5406 4.03788 21.2229 3.90969 21.0286 3.82799C20.6376 3.66951 20.2716 3.54152 20.0001 3.42932C19.9322 3.40201 19.8709 3.37364 19.8169 3.34655C19.7626 3.32117 19.7156 3.29558 19.6777 3.2702C19.6019 3.21943 19.5613 3.16887 19.5669 3.12194Z" fill="url(#paint12_linear_273_5015)"/>
<path d="M552.908 9.14615C552.942 9.21163 553.003 9.25942 553.099 9.28117C553.194 9.30144 553.323 9.2895 553.467 9.22252C553.61 9.15597 553.762 9.02393 553.867 8.8375C553.973 8.65235 554.02 8.41749 553.994 8.19053C553.984 8.07556 553.944 7.93285 553.874 7.78226C553.804 7.63166 553.698 7.47723 553.563 7.34007C553.428 7.20206 553.265 7.08111 553.09 6.9864C552.915 6.89148 552.729 6.82301 552.547 6.77843C552.365 6.7362 552.189 6.71678 552.03 6.71294C551.95 6.71252 551.874 6.71465 551.804 6.71913C551.734 6.72638 551.669 6.73214 551.61 6.74195C551.551 6.75283 551.498 6.76372 551.452 6.77438C551.406 6.78547 551.367 6.79976 551.335 6.81128C551.271 6.83517 551.237 6.85629 551.237 6.87293C551.238 6.88764 551.274 6.90663 551.335 6.92882C551.405 6.95164 551.49 6.98001 551.587 7.01222C551.638 7.02971 551.693 7.05167 551.751 7.07194C551.808 7.09498 551.867 7.12037 551.928 7.14703C552.048 7.20356 552.17 7.27138 552.284 7.3486C552.396 7.42816 552.499 7.51776 552.582 7.61141C552.666 7.70505 552.731 7.80253 552.777 7.89361C552.823 7.98448 552.849 8.06873 552.861 8.13741C552.867 8.15448 552.867 8.17091 552.87 8.18605C552.873 8.20141 552.875 8.2157 552.876 8.22893C552.877 8.24215 552.878 8.25453 552.881 8.26604C552.881 8.27735 552.881 8.28759 552.883 8.29719C552.891 8.37334 552.898 8.43456 552.903 8.49599C552.908 8.557 552.913 8.62397 552.905 8.69778C552.895 8.8456 552.841 9.01304 552.908 9.14615Z" fill="url(#paint13_linear_273_5015)"/>
<path d="M554.117 6.81785C553.12 6.44115 551.738 6.37673 551.556 6.36969C551.544 6.36926 551.535 6.3633 551.535 6.35562L551.042 5.97208C550.977 5.92131 550.974 5.8281 551.035 5.77307L551.498 5.35797C551.498 5.35051 551.506 5.34389 551.518 5.34261C551.699 5.32363 552.968 5.18903 554.04 4.72658C554.049 4.72295 555.64 5.49726 555.974 5.67239C556.007 5.69009 556.009 5.72656 555.976 5.74661C555.657 5.9435 554.126 6.82105 554.117 6.81785Z" fill="url(#paint14_linear_273_5015)"/>
<path d="M552.66 2.43066C552.688 2.36304 552.746 2.31142 552.841 2.28347C552.934 2.25702 553.063 2.26044 553.212 2.31782C553.359 2.37477 553.521 2.49657 553.639 2.67554C553.758 2.85344 553.823 3.08445 553.814 3.31269C553.813 3.42787 553.783 3.57292 553.724 3.72799C553.665 3.88285 553.571 4.0439 553.446 4.18959C553.322 4.33613 553.169 4.46774 553.001 4.57354C552.834 4.67977 552.652 4.76041 552.475 4.81694C552.296 4.87112 552.122 4.90205 551.963 4.91634C551.883 4.9221 551.808 4.92486 551.738 4.92508C551.667 4.92252 551.602 4.92103 551.542 4.91505C551.483 4.90801 551.429 4.90077 551.382 4.89309C551.336 4.88498 551.295 4.87345 551.263 4.86407C551.197 4.84444 551.162 4.82567 551.161 4.80904C551.16 4.79432 551.195 4.77299 551.255 4.74675C551.322 4.71924 551.405 4.68554 551.5 4.64693C551.55 4.62624 551.602 4.60064 551.659 4.57654C551.714 4.54987 551.771 4.52065 551.829 4.48993C551.945 4.42573 552.062 4.35001 552.17 4.26532C552.276 4.17851 552.371 4.08251 552.448 3.98333C552.525 3.88435 552.583 3.78282 552.621 3.68896C552.661 3.59532 552.68 3.50956 552.688 3.44024C552.692 3.42296 552.691 3.40654 552.692 3.39118C552.694 3.37582 552.696 3.36131 552.695 3.34809C552.695 3.33486 552.696 3.32228 552.697 3.31076C552.696 3.29967 552.696 3.28922 552.697 3.27962C552.699 3.20304 552.702 3.14161 552.702 3.08018C552.703 3.01896 552.702 2.95176 552.69 2.8786C552.669 2.73142 552.603 2.56781 552.66 2.43066Z" fill="url(#paint15_linear_273_5015)"/>
<path d="M551.132 2.48818C551.176 2.45085 551.188 2.3828 551.168 2.28617C551.149 2.18933 551.099 2.06369 551.013 1.91629C550.972 1.84142 550.92 1.76207 550.859 1.67803C550.8 1.5927 550.729 1.50397 550.648 1.41139C550.488 1.2256 550.286 1.02424 550.028 0.826498C549.771 0.628548 549.458 0.431247 549.074 0.273399C548.691 0.11939 548.232 0.00484062 547.737 0.00078776C547.241 -0.010091 546.725 0.0922882 546.249 0.271681C545.773 0.453419 545.334 0.706413 544.937 0.996726C544.537 1.28576 544.07 1.70234 543.595 2.21364C543.116 2.72366 542.626 3.32691 542.126 3.96918C541.625 4.61017 541.113 5.29446 540.562 5.9346C540.423 6.09394 540.283 6.25093 540.139 6.40088C540.067 6.47533 539.994 6.54978 539.92 6.62081C539.883 6.65835 539.847 6.69077 539.812 6.72191C539.776 6.7537 539.741 6.78676 539.705 6.81791C539.408 7.06406 539.069 7.27716 538.703 7.43906C538.338 7.60394 537.952 7.72532 537.565 7.80232C537.177 7.87997 536.79 7.9205 536.417 7.91879C535.67 7.91965 534.988 7.77096 534.451 7.5536C534.181 7.44673 533.946 7.32281 533.749 7.19781C533.549 7.07622 533.391 6.95016 533.259 6.84628C533.133 6.73749 533.032 6.65131 532.967 6.58966C532.899 6.52973 532.857 6.50072 532.846 6.50797C532.837 6.51437 532.854 6.55874 532.898 6.63831C532.939 6.71958 533.014 6.82943 533.119 6.96786C533.229 7.10118 533.368 7.26308 533.557 7.42626C533.742 7.59264 533.973 7.76414 534.249 7.92157C534.797 8.24004 535.53 8.50177 536.371 8.59754C536.792 8.64746 537.237 8.65151 537.695 8.6097C538.152 8.56853 538.621 8.47489 539.083 8.32045C539.546 8.16943 539.999 7.94887 540.418 7.66453C540.471 7.62848 540.521 7.58987 540.572 7.55233C540.624 7.51436 540.675 7.47639 540.72 7.43928C540.814 7.36483 540.904 7.28846 540.994 7.21188C541.173 7.05809 541.344 6.90003 541.51 6.7409C542.17 6.10311 542.752 5.44826 543.298 4.85228C543.842 4.25501 544.348 3.71427 544.805 3.27656C545.26 2.83672 545.666 2.5031 545.979 2.27699C546.291 2.04769 546.603 1.86254 546.905 1.72751C547.207 1.5959 547.498 1.51421 547.781 1.48861C548.063 1.45789 548.341 1.48435 548.612 1.53938C548.881 1.59804 549.14 1.68891 549.378 1.78938C549.617 1.88878 549.835 1.99905 550.03 2.09973C550.127 2.14965 550.22 2.1968 550.305 2.24223C550.386 2.28297 550.466 2.32307 550.545 2.36253C550.842 2.50438 551.043 2.56497 551.132 2.48818Z" fill="url(#paint16_linear_273_5015)"/>
<path d="M545.941 6.1179C545.782 6.09678 545.637 6.54878 545.29 7.11661C545.245 7.18636 545.2 7.25888 545.145 7.32778C545.096 7.40073 545.034 7.46665 544.976 7.53747C544.85 7.67207 544.708 7.80112 544.542 7.91183C544.214 8.13516 543.783 8.28 543.283 8.32458C543.033 8.34762 542.695 8.35379 542.292 8.30665C541.891 8.25781 541.427 8.15862 540.946 7.99032C540.472 7.82863 539.961 7.57735 539.43 7.32458C538.897 7.07202 538.337 6.80646 537.747 6.63155C537.16 6.45258 536.552 6.37088 536.002 6.40522C535.449 6.43551 534.982 6.5603 534.593 6.64776C534.399 6.6949 534.223 6.7303 534.067 6.76294C533.912 6.79174 533.776 6.81115 533.664 6.83056C533.441 6.85168 533.312 6.87088 533.311 6.88709C533.31 6.90117 533.436 6.921 533.669 6.94447C533.784 6.94745 533.927 6.95129 534.09 6.94681C534.253 6.93849 534.439 6.92805 534.64 6.90693C535.042 6.87088 535.511 6.80796 536.002 6.83654C536.495 6.86064 537.018 6.98692 537.524 7.19724C538.034 7.40372 538.531 7.6966 539.034 7.99139C539.538 8.28597 540.043 8.59036 540.585 8.82137C541.117 9.05153 541.649 9.20256 542.133 9.28554C542.617 9.36723 543.054 9.37554 543.388 9.34419C543.723 9.31347 544.053 9.24074 544.359 9.12171C544.664 9.00354 544.942 8.83844 545.17 8.64518C545.4 8.45235 545.578 8.23455 545.714 8.02061C545.777 7.91097 545.839 7.80645 545.882 7.70043C545.931 7.59655 545.965 7.49416 545.996 7.39625C546.115 7.00419 546.121 6.68317 546.101 6.46475C546.071 6.24546 546.015 6.12579 545.941 6.1179Z" fill="url(#paint17_linear_273_5015)"/>
<path d="M536.676 9.68951C536.678 9.64237 536.634 9.59459 536.554 9.54873C536.515 9.52569 536.466 9.50329 536.41 9.48174C536.354 9.45807 536.29 9.43396 536.221 9.41114C535.942 9.31728 535.567 9.21383 535.165 9.08136C534.966 9.01268 534.639 8.90517 534.283 8.72728C533.926 8.55215 533.545 8.29874 533.21 8.02357C533.126 7.95552 533.048 7.883 532.968 7.81517C532.933 7.78147 532.898 7.74776 532.864 7.71427C532.83 7.68035 532.799 7.64281 532.767 7.60825C532.642 7.46448 532.533 7.3205 532.434 7.20148C532.335 7.08202 532.245 6.9886 532.176 6.92973C532.105 6.87256 532.062 6.84546 532.054 6.85272C532.047 6.85912 532.069 6.90413 532.113 6.97623C532.154 7.05067 532.211 7.15797 532.275 7.29235C532.34 7.42738 532.414 7.58927 532.514 7.76717C532.54 7.81132 532.565 7.85719 532.595 7.90284C532.626 7.94785 532.658 7.99562 532.692 8.04085C532.76 8.12553 532.828 8.21554 532.903 8.30193C533.202 8.65005 533.574 8.99007 533.951 9.23686C534.326 9.48643 534.694 9.64599 534.925 9.72492C535.392 9.87914 535.841 9.91646 536.16 9.89023C536.239 9.88297 536.312 9.87402 536.375 9.86165C536.438 9.84736 536.492 9.83135 536.536 9.81365C536.625 9.77866 536.674 9.73665 536.676 9.68951Z" fill="url(#paint18_linear_273_5015)"/>
<path d="M551.382 9.2821C551.287 9.21149 551.091 9.28508 550.805 9.44613C550.73 9.49071 550.653 9.53593 550.575 9.58201C550.493 9.63299 550.405 9.6861 550.311 9.7422C550.124 9.85547 549.915 9.98004 549.684 10.0948C549.453 10.2108 549.202 10.3183 548.937 10.3947C548.672 10.4675 548.396 10.5122 548.112 10.5001C547.829 10.4933 547.532 10.4308 547.221 10.3196C546.91 10.2049 546.585 10.0408 546.257 9.83264C545.928 9.62765 545.499 9.32134 545.012 8.91222C544.525 8.50523 543.981 7.99862 543.395 7.43804C542.807 6.87875 542.18 6.26314 541.474 5.6695C541.297 5.52146 541.115 5.37492 540.925 5.23286C540.83 5.16225 540.734 5.09166 540.635 5.02361C540.587 4.98948 540.534 4.95492 540.479 4.92037C540.425 4.88624 540.372 4.85082 540.317 4.8184C539.877 4.56136 539.408 4.37066 538.935 4.24972C538.462 4.12536 537.986 4.06244 537.526 4.05113C537.066 4.0394 536.621 4.07247 536.205 4.1499C535.371 4.30092 534.657 4.61085 534.132 4.96601C533.868 5.14199 533.651 5.32885 533.478 5.50781C533.302 5.68379 533.175 5.85529 533.075 5.9965C532.982 6.14241 532.916 6.25759 532.882 6.34206C532.846 6.42504 532.832 6.47132 532.844 6.47772C532.854 6.48348 532.892 6.45106 532.955 6.386C533.014 6.31924 533.107 6.22602 533.224 6.10828C533.348 5.99522 533.496 5.85806 533.687 5.72283C533.874 5.58439 534.099 5.44467 534.361 5.31946C534.882 5.06584 535.553 4.87194 536.3 4.82352C536.673 4.79749 537.064 4.81244 537.456 4.8647C537.849 4.91632 538.244 5.01229 538.62 5.1535C538.998 5.2913 539.353 5.48243 539.667 5.70918C539.707 5.73798 539.744 5.76869 539.781 5.79813C539.819 5.82693 539.857 5.85721 539.897 5.89219C539.976 5.95832 540.054 6.02807 540.132 6.09761C540.287 6.23797 540.438 6.3858 540.587 6.53575C541.184 7.13899 541.744 7.78851 542.291 8.39559C542.837 9.00415 543.369 9.5739 543.883 10.0517C544.395 10.5306 544.891 10.9158 545.312 11.1778C545.729 11.4412 546.186 11.6645 546.674 11.8145C547.162 11.9621 547.684 12.0302 548.178 11.9866C548.672 11.9499 549.121 11.8053 549.492 11.6266C549.863 11.4438 550.161 11.2264 550.403 11.0118C550.646 10.7974 550.832 10.5833 550.978 10.3875C551.052 10.2898 551.116 10.1965 551.169 10.1076C551.224 10.0197 551.27 9.93717 551.305 9.85974C551.38 9.70722 551.421 9.57859 551.433 9.48068C551.445 9.38362 551.429 9.31665 551.382 9.2821Z" fill="url(#paint19_linear_273_5015)"/>
<path d="M545.938 6.00456C546.011 5.99197 546.058 5.8689 546.072 5.6477C546.076 5.42863 546.046 5.10866 545.898 4.72535C545.861 4.62978 545.819 4.52975 545.762 4.42949C545.711 4.32647 545.642 4.22642 545.571 4.12126C545.419 3.9167 545.226 3.71129 544.983 3.53403C544.74 3.35634 544.451 3.2098 544.138 3.11232C543.824 3.01377 543.489 2.963 543.153 2.95447C542.817 2.9453 542.382 2.98199 541.905 3.09504C541.429 3.20916 540.908 3.39451 540.394 3.6588C539.87 3.92437 539.388 4.26097 538.907 4.58755C538.426 4.91412 537.952 5.23836 537.459 5.47726C536.97 5.71979 536.458 5.87978 535.969 5.93609C535.483 5.99688 535.011 5.9651 534.607 5.95593C534.405 5.94846 534.218 5.95038 534.055 5.95316C533.891 5.95977 533.749 5.97342 533.634 5.98451C533.404 6.0244 533.279 6.05405 533.281 6.07004C533.283 6.08412 533.413 6.09329 533.638 6.09841C533.751 6.10972 533.888 6.11974 534.046 6.13788C534.203 6.15985 534.381 6.18332 534.579 6.21745C534.974 6.27846 535.448 6.37209 536.002 6.36612C536.551 6.36441 537.151 6.24347 537.723 6.02696C538.298 5.8143 538.838 5.5131 539.35 5.22663C539.862 4.93994 540.354 4.65624 540.816 4.46405C541.283 4.26503 541.739 4.13598 542.136 4.06111C542.534 3.98774 542.872 3.97216 543.123 3.97856C543.625 3.99008 544.065 4.10633 544.41 4.30727C544.583 4.40688 544.734 4.52612 544.869 4.65219C544.933 4.71917 545 4.78082 545.054 4.85036C545.113 4.91563 545.164 4.98474 545.214 5.05151C545.602 5.5948 545.78 6.03613 545.938 6.00456Z" fill="url(#paint20_linear_273_5015)"/>
<path d="M548.66 7.00564C548.054 7.02569 547.546 6.57774 547.525 6.00522C547.504 5.4327 547.978 4.95234 548.583 4.93229C549.189 4.91224 549.697 5.36019 549.718 5.93271C549.74 6.50522 549.266 6.98559 548.66 7.00564Z" fill="url(#paint21_linear_273_5015)"/>
<path d="M530.828 7.54053C530.285 7.55845 529.829 7.15657 529.81 6.64292C529.791 6.12928 530.216 5.6984 530.76 5.68026C531.303 5.66235 531.759 6.06422 531.778 6.57787C531.797 7.09173 531.372 7.52261 530.828 7.54053Z" fill="url(#paint22_linear_273_5015)"/>
<path d="M536.434 3.12194C536.428 3.07502 536.376 3.03641 536.285 3.00697C536.24 2.99225 536.185 2.97967 536.12 2.96964C536.057 2.96154 535.984 2.95727 535.904 2.95535C535.585 2.95023 535.139 3.01699 534.684 3.20171C534.459 3.29578 534.104 3.47859 533.748 3.75162C533.389 4.02189 533.043 4.38515 532.769 4.75183C532.7 4.84291 532.639 4.9372 532.577 5.02615C532.547 5.0735 532.519 5.12341 532.49 5.17034C532.464 5.21791 532.442 5.26527 532.419 5.31113C532.333 5.49521 532.271 5.66181 532.217 5.80089C532.163 5.93933 532.114 6.05002 532.079 6.12745C532.042 6.20275 532.024 6.24968 532.033 6.25629C532.04 6.26226 532.08 6.23176 532.146 6.16969C532.209 6.10633 532.292 6.00693 532.381 5.8813C532.471 5.75608 532.57 5.60528 532.683 5.4532C532.713 5.41651 532.741 5.37704 532.772 5.34099C532.804 5.30537 532.837 5.26954 532.869 5.23327C532.944 5.16053 533.017 5.08288 533.096 5.00972C533.411 4.71322 533.773 4.43592 534.117 4.23818C534.46 4.03788 534.778 3.90969 534.972 3.82799C535.363 3.66951 535.729 3.54152 536 3.42932C536.068 3.40201 536.13 3.37364 536.184 3.34655C536.238 3.32117 536.285 3.29558 536.323 3.2702C536.399 3.21943 536.439 3.16887 536.434 3.12194Z" fill="url(#paint23_linear_273_5015)"/>
<defs>
<linearGradient id="paint0_linear_273_5015" x1="278.058" y1="6.61128" x2="531.835" y2="6.61128" gradientUnits="userSpaceOnUse">
<stop stop-color="#9A7A5F"/>
<stop offset="0.077" stop-color="#C9A885"/>
<stop offset="0.1472" stop-color="#D4B895"/>
<stop offset="0.2662" stop-color="#E2CDAB"/>
<stop offset="0.3818" stop-color="#EBDAB8"/>
<stop offset="0.4892" stop-color="#EEDEBC"/>
<stop offset="0.5877" stop-color="#EBDAB8"/>
<stop offset="0.6903" stop-color="#E3CEAB"/>
<stop offset="0.7944" stop-color="#D5B997"/>
<stop offset="0.8616" stop-color="#C9A885"/>
<stop offset="1" stop-color="#9A7A5F"/>
</linearGradient>
<linearGradient id="paint1_linear_273_5015" x1="24.0931" y1="6.61128" x2="277.871" y2="6.61128" gradientUnits="userSpaceOnUse">
<stop stop-color="#9A7A5F"/>
<stop offset="0.077" stop-color="#C9A885"/>
<stop offset="0.1472" stop-color="#D4B895"/>
<stop offset="0.2662" stop-color="#E2CDAB"/>
<stop offset="0.3818" stop-color="#EBDAB8"/>
<stop offset="0.4892" stop-color="#EEDEBC"/>
<stop offset="0.5877" stop-color="#EBDAB8"/>
<stop offset="0.6903" stop-color="#E3CEAB"/>
<stop offset="0.7944" stop-color="#D5B997"/>
<stop offset="0.8616" stop-color="#C9A885"/>
<stop offset="1" stop-color="#9A7A5F"/>
</linearGradient>
<linearGradient id="paint2_linear_273_5015" x1="1.99883" y1="8.00135" x2="4.76235" y2="8.00135" gradientUnits="userSpaceOnUse">
<stop stop-color="#9A7A5F"/>
<stop offset="0.077" stop-color="#C9A885"/>
<stop offset="0.1472" stop-color="#D4B895"/>
<stop offset="0.2662" stop-color="#E2CDAB"/>
<stop offset="0.3818" stop-color="#EBDAB8"/>
<stop offset="0.4892" stop-color="#EEDEBC"/>
<stop offset="0.5877" stop-color="#EBDAB8"/>
<stop offset="0.6903" stop-color="#E3CEAB"/>
<stop offset="0.7944" stop-color="#D5B997"/>
<stop offset="0.8616" stop-color="#C9A885"/>
<stop offset="1" stop-color="#9A7A5F"/>
</linearGradient>
<linearGradient id="paint3_linear_273_5015" x1="0.000113722" y1="5.7723" x2="5.00867" y2="5.7723" gradientUnits="userSpaceOnUse">
<stop stop-color="#9A7A5F"/>
<stop offset="0.077" stop-color="#C9A885"/>
<stop offset="0.1472" stop-color="#D4B895"/>
<stop offset="0.2662" stop-color="#E2CDAB"/>
<stop offset="0.3818" stop-color="#EBDAB8"/>
<stop offset="0.4892" stop-color="#EEDEBC"/>
<stop offset="0.5877" stop-color="#EBDAB8"/>
<stop offset="0.6903" stop-color="#E3CEAB"/>
<stop offset="0.7944" stop-color="#D5B997"/>
<stop offset="0.8616" stop-color="#C9A885"/>
<stop offset="1" stop-color="#9A7A5F"/>
</linearGradient>
<linearGradient id="paint4_linear_273_5015" x1="2.18452" y1="3.59613" x2="4.83797" y2="3.59613" gradientUnits="userSpaceOnUse">
<stop stop-color="#9A7A5F"/>
<stop offset="0.077" stop-color="#C9A885"/>
<stop offset="0.1472" stop-color="#D4B895"/>
<stop offset="0.2662" stop-color="#E2CDAB"/>
<stop offset="0.3818" stop-color="#EBDAB8"/>
<stop offset="0.4892" stop-color="#EEDEBC"/>
<stop offset="0.5877" stop-color="#EBDAB8"/>
<stop offset="0.6903" stop-color="#E3CEAB"/>
<stop offset="0.7944" stop-color="#D5B997"/>
<stop offset="0.8616" stop-color="#C9A885"/>
<stop offset="1" stop-color="#9A7A5F"/>
</linearGradient>
<linearGradient id="paint5_linear_273_5015" x1="4.82337" y1="4.31919" x2="23.157" y2="4.31919" gradientUnits="userSpaceOnUse">
<stop stop-color="#9A7A5F"/>
<stop offset="0.077" stop-color="#C9A885"/>
<stop offset="0.1472" stop-color="#D4B895"/>
<stop offset="0.2662" stop-color="#E2CDAB"/>
<stop offset="0.3818" stop-color="#EBDAB8"/>
<stop offset="0.4892" stop-color="#EEDEBC"/>
<stop offset="0.5877" stop-color="#EBDAB8"/>
<stop offset="0.6903" stop-color="#E3CEAB"/>
<stop offset="0.7944" stop-color="#D5B997"/>
<stop offset="0.8616" stop-color="#C9A885"/>
<stop offset="1" stop-color="#9A7A5F"/>
</linearGradient>
<linearGradient id="paint6_linear_273_5015" x1="9.88901" y1="7.73921" x2="22.6884" y2="7.73921" gradientUnits="userSpaceOnUse">
<stop stop-color="#9A7A5F"/>
<stop offset="0.077" stop-color="#C9A885"/>
<stop offset="0.1472" stop-color="#D4B895"/>
<stop offset="0.2662" stop-color="#E2CDAB"/>
<stop offset="0.3818" stop-color="#EBDAB8"/>
<stop offset="0.4892" stop-color="#EEDEBC"/>
<stop offset="0.5877" stop-color="#EBDAB8"/>
<stop offset="0.6903" stop-color="#E3CEAB"/>
<stop offset="0.7944" stop-color="#D5B997"/>
<stop offset="0.8616" stop-color="#C9A885"/>
<stop offset="1" stop-color="#9A7A5F"/>
</linearGradient>
<linearGradient id="paint7_linear_273_5015" x1="19.3243" y1="8.37501" x2="23.9476" y2="8.37501" gradientUnits="userSpaceOnUse">
<stop stop-color="#9A7A5F"/>
<stop offset="0.077" stop-color="#C9A885"/>
<stop offset="0.1472" stop-color="#D4B895"/>
<stop offset="0.2662" stop-color="#E2CDAB"/>
<stop offset="0.3818" stop-color="#EBDAB8"/>
<stop offset="0.4892" stop-color="#EEDEBC"/>
<stop offset="0.5877" stop-color="#EBDAB8"/>
<stop offset="0.6903" stop-color="#E3CEAB"/>
<stop offset="0.7944" stop-color="#D5B997"/>
<stop offset="0.8616" stop-color="#C9A885"/>
<stop offset="1" stop-color="#9A7A5F"/>
</linearGradient>
<linearGradient id="paint8_linear_273_5015" x1="4.56249" y1="8.02456" x2="23.1594" y2="8.02456" gradientUnits="userSpaceOnUse">
<stop stop-color="#9A7A5F"/>
<stop offset="0.077" stop-color="#C9A885"/>
<stop offset="0.1472" stop-color="#D4B895"/>
<stop offset="0.2662" stop-color="#E2CDAB"/>
<stop offset="0.3818" stop-color="#EBDAB8"/>
<stop offset="0.4892" stop-color="#EEDEBC"/>
<stop offset="0.5877" stop-color="#EBDAB8"/>
<stop offset="0.6903" stop-color="#E3CEAB"/>
<stop offset="0.7944" stop-color="#D5B997"/>
<stop offset="0.8616" stop-color="#C9A885"/>
<stop offset="1" stop-color="#9A7A5F"/>
</linearGradient>
<linearGradient id="paint9_linear_273_5015" x1="9.92761" y1="4.65976" x2="22.7184" y2="4.65976" gradientUnits="userSpaceOnUse">
<stop stop-color="#9A7A5F"/>
<stop offset="0.077" stop-color="#C9A885"/>
<stop offset="0.1472" stop-color="#D4B895"/>
<stop offset="0.2662" stop-color="#E2CDAB"/>
<stop offset="0.3818" stop-color="#EBDAB8"/>
<stop offset="0.4892" stop-color="#EEDEBC"/>
<stop offset="0.5877" stop-color="#EBDAB8"/>
<stop offset="0.6903" stop-color="#E3CEAB"/>
<stop offset="0.7944" stop-color="#D5B997"/>
<stop offset="0.8616" stop-color="#C9A885"/>
<stop offset="1" stop-color="#9A7A5F"/>
</linearGradient>
<linearGradient id="paint10_linear_273_5015" x1="6.28012" y1="5.96896" x2="8.47472" y2="5.96896" gradientUnits="userSpaceOnUse">
<stop stop-color="#9A7A5F"/>
<stop offset="0.077" stop-color="#C9A885"/>
<stop offset="0.1472" stop-color="#D4B895"/>
<stop offset="0.2662" stop-color="#E2CDAB"/>
<stop offset="0.3818" stop-color="#EBDAB8"/>
<stop offset="0.4892" stop-color="#EEDEBC"/>
<stop offset="0.5877" stop-color="#EBDAB8"/>
<stop offset="0.6903" stop-color="#E3CEAB"/>
<stop offset="0.7944" stop-color="#D5B997"/>
<stop offset="0.8616" stop-color="#C9A885"/>
<stop offset="1" stop-color="#9A7A5F"/>
</linearGradient>
<linearGradient id="paint11_linear_273_5015" x1="24.2209" y1="6.6105" x2="26.1898" y2="6.6105" gradientUnits="userSpaceOnUse">
<stop stop-color="#9A7A5F"/>
<stop offset="0.077" stop-color="#C9A885"/>
<stop offset="0.1472" stop-color="#D4B895"/>
<stop offset="0.2662" stop-color="#E2CDAB"/>
<stop offset="0.3818" stop-color="#EBDAB8"/>
<stop offset="0.4892" stop-color="#EEDEBC"/>
<stop offset="0.5877" stop-color="#EBDAB8"/>
<stop offset="0.6903" stop-color="#E3CEAB"/>
<stop offset="0.7944" stop-color="#D5B997"/>
<stop offset="0.8616" stop-color="#C9A885"/>
<stop offset="1" stop-color="#9A7A5F"/>
</linearGradient>
<linearGradient id="paint12_linear_273_5015" x1="19.5663" y1="4.6062" x2="23.9703" y2="4.6062" gradientUnits="userSpaceOnUse">
<stop stop-color="#9A7A5F"/>
<stop offset="0.077" stop-color="#C9A885"/>
<stop offset="0.1472" stop-color="#D4B895"/>
<stop offset="0.2662" stop-color="#E2CDAB"/>
<stop offset="0.3818" stop-color="#EBDAB8"/>
<stop offset="0.4892" stop-color="#EEDEBC"/>
<stop offset="0.5877" stop-color="#EBDAB8"/>
<stop offset="0.6903" stop-color="#E3CEAB"/>
<stop offset="0.7944" stop-color="#D5B997"/>
<stop offset="0.8616" stop-color="#C9A885"/>
<stop offset="1" stop-color="#9A7A5F"/>
</linearGradient>
<linearGradient id="paint13_linear_273_5015" x1="551.237" y1="8.00135" x2="554.001" y2="8.00135" gradientUnits="userSpaceOnUse">
<stop stop-color="#9A7A5F"/>
<stop offset="0.077" stop-color="#C9A885"/>
<stop offset="0.1472" stop-color="#D4B895"/>
<stop offset="0.2662" stop-color="#E2CDAB"/>
<stop offset="0.3818" stop-color="#EBDAB8"/>
<stop offset="0.4892" stop-color="#EEDEBC"/>
<stop offset="0.5877" stop-color="#EBDAB8"/>
<stop offset="0.6903" stop-color="#E3CEAB"/>
<stop offset="0.7944" stop-color="#D5B997"/>
<stop offset="0.8616" stop-color="#C9A885"/>
<stop offset="1" stop-color="#9A7A5F"/>
</linearGradient>
<linearGradient id="paint14_linear_273_5015" x1="550.991" y1="5.7723" x2="556" y2="5.7723" gradientUnits="userSpaceOnUse">
<stop stop-color="#9A7A5F"/>
<stop offset="0.077" stop-color="#C9A885"/>
<stop offset="0.1472" stop-color="#D4B895"/>
<stop offset="0.2662" stop-color="#E2CDAB"/>
<stop offset="0.3818" stop-color="#EBDAB8"/>
<stop offset="0.4892" stop-color="#EEDEBC"/>
<stop offset="0.5877" stop-color="#EBDAB8"/>
<stop offset="0.6903" stop-color="#E3CEAB"/>
<stop offset="0.7944" stop-color="#D5B997"/>
<stop offset="0.8616" stop-color="#C9A885"/>
<stop offset="1" stop-color="#9A7A5F"/>
</linearGradient>
<linearGradient id="paint15_linear_273_5015" x1="551.161" y1="3.59613" x2="553.814" y2="3.59613" gradientUnits="userSpaceOnUse">
<stop stop-color="#9A7A5F"/>
<stop offset="0.077" stop-color="#C9A885"/>
<stop offset="0.1472" stop-color="#D4B895"/>
<stop offset="0.2662" stop-color="#E2CDAB"/>
<stop offset="0.3818" stop-color="#EBDAB8"/>
<stop offset="0.4892" stop-color="#EEDEBC"/>
<stop offset="0.5877" stop-color="#EBDAB8"/>
<stop offset="0.6903" stop-color="#E3CEAB"/>
<stop offset="0.7944" stop-color="#D5B997"/>
<stop offset="0.8616" stop-color="#C9A885"/>
<stop offset="1" stop-color="#9A7A5F"/>
</linearGradient>
<linearGradient id="paint16_linear_273_5015" x1="532.844" y1="4.31919" x2="551.177" y2="4.31919" gradientUnits="userSpaceOnUse">
<stop stop-color="#9A7A5F"/>
<stop offset="0.077" stop-color="#C9A885"/>
<stop offset="0.1472" stop-color="#D4B895"/>
<stop offset="0.2662" stop-color="#E2CDAB"/>
<stop offset="0.3818" stop-color="#EBDAB8"/>
<stop offset="0.4892" stop-color="#EEDEBC"/>
<stop offset="0.5877" stop-color="#EBDAB8"/>
<stop offset="0.6903" stop-color="#E3CEAB"/>
<stop offset="0.7944" stop-color="#D5B997"/>
<stop offset="0.8616" stop-color="#C9A885"/>
<stop offset="1" stop-color="#9A7A5F"/>
</linearGradient>
<linearGradient id="paint17_linear_273_5015" x1="533.311" y1="7.73921" x2="546.11" y2="7.73921" gradientUnits="userSpaceOnUse">
<stop stop-color="#9A7A5F"/>
<stop offset="0.077" stop-color="#C9A885"/>
<stop offset="0.1472" stop-color="#D4B895"/>
<stop offset="0.2662" stop-color="#E2CDAB"/>
<stop offset="0.3818" stop-color="#EBDAB8"/>
<stop offset="0.4892" stop-color="#EEDEBC"/>
<stop offset="0.5877" stop-color="#EBDAB8"/>
<stop offset="0.6903" stop-color="#E3CEAB"/>
<stop offset="0.7944" stop-color="#D5B997"/>
<stop offset="0.8616" stop-color="#C9A885"/>
<stop offset="1" stop-color="#9A7A5F"/>
</linearGradient>
<linearGradient id="paint18_linear_273_5015" x1="532.053" y1="8.37501" x2="536.676" y2="8.37501" gradientUnits="userSpaceOnUse">
<stop stop-color="#9A7A5F"/>
<stop offset="0.077" stop-color="#C9A885"/>
<stop offset="0.1472" stop-color="#D4B895"/>
<stop offset="0.2662" stop-color="#E2CDAB"/>
<stop offset="0.3818" stop-color="#EBDAB8"/>
<stop offset="0.4892" stop-color="#EEDEBC"/>
<stop offset="0.5877" stop-color="#EBDAB8"/>
<stop offset="0.6903" stop-color="#E3CEAB"/>
<stop offset="0.7944" stop-color="#D5B997"/>
<stop offset="0.8616" stop-color="#C9A885"/>
<stop offset="1" stop-color="#9A7A5F"/>
</linearGradient>
<linearGradient id="paint19_linear_273_5015" x1="532.84" y1="8.02456" x2="551.437" y2="8.02456" gradientUnits="userSpaceOnUse">
<stop stop-color="#9A7A5F"/>
<stop offset="0.077" stop-color="#C9A885"/>
<stop offset="0.1472" stop-color="#D4B895"/>
<stop offset="0.2662" stop-color="#E2CDAB"/>
<stop offset="0.3818" stop-color="#EBDAB8"/>
<stop offset="0.4892" stop-color="#EEDEBC"/>
<stop offset="0.5877" stop-color="#EBDAB8"/>
<stop offset="0.6903" stop-color="#E3CEAB"/>
<stop offset="0.7944" stop-color="#D5B997"/>
<stop offset="0.8616" stop-color="#C9A885"/>
<stop offset="1" stop-color="#9A7A5F"/>
</linearGradient>
<linearGradient id="paint20_linear_273_5015" x1="533.281" y1="4.65976" x2="546.072" y2="4.65976" gradientUnits="userSpaceOnUse">
<stop stop-color="#9A7A5F"/>
<stop offset="0.077" stop-color="#C9A885"/>
<stop offset="0.1472" stop-color="#D4B895"/>
<stop offset="0.2662" stop-color="#E2CDAB"/>
<stop offset="0.3818" stop-color="#EBDAB8"/>
<stop offset="0.4892" stop-color="#EEDEBC"/>
<stop offset="0.5877" stop-color="#EBDAB8"/>
<stop offset="0.6903" stop-color="#E3CEAB"/>
<stop offset="0.7944" stop-color="#D5B997"/>
<stop offset="0.8616" stop-color="#C9A885"/>
<stop offset="1" stop-color="#9A7A5F"/>
</linearGradient>
<linearGradient id="paint21_linear_273_5015" x1="547.525" y1="5.96896" x2="549.719" y2="5.96896" gradientUnits="userSpaceOnUse">
<stop stop-color="#9A7A5F"/>
<stop offset="0.077" stop-color="#C9A885"/>
<stop offset="0.1472" stop-color="#D4B895"/>
<stop offset="0.2662" stop-color="#E2CDAB"/>
<stop offset="0.3818" stop-color="#EBDAB8"/>
<stop offset="0.4892" stop-color="#EEDEBC"/>
<stop offset="0.5877" stop-color="#EBDAB8"/>
<stop offset="0.6903" stop-color="#E3CEAB"/>
<stop offset="0.7944" stop-color="#D5B997"/>
<stop offset="0.8616" stop-color="#C9A885"/>
<stop offset="1" stop-color="#9A7A5F"/>
</linearGradient>
<linearGradient id="paint22_linear_273_5015" x1="529.81" y1="6.6105" x2="531.779" y2="6.6105" gradientUnits="userSpaceOnUse">
<stop stop-color="#9A7A5F"/>
<stop offset="0.077" stop-color="#C9A885"/>
<stop offset="0.1472" stop-color="#D4B895"/>
<stop offset="0.2662" stop-color="#E2CDAB"/>
<stop offset="0.3818" stop-color="#EBDAB8"/>
<stop offset="0.4892" stop-color="#EEDEBC"/>
<stop offset="0.5877" stop-color="#EBDAB8"/>
<stop offset="0.6903" stop-color="#E3CEAB"/>
<stop offset="0.7944" stop-color="#D5B997"/>
<stop offset="0.8616" stop-color="#C9A885"/>
<stop offset="1" stop-color="#9A7A5F"/>
</linearGradient>
<linearGradient id="paint23_linear_273_5015" x1="532.03" y1="4.6062" x2="536.434" y2="4.6062" gradientUnits="userSpaceOnUse">
<stop stop-color="#9A7A5F"/>
<stop offset="0.077" stop-color="#C9A885"/>
<stop offset="0.1472" stop-color="#D4B895"/>
<stop offset="0.2662" stop-color="#E2CDAB"/>
<stop offset="0.3818" stop-color="#EBDAB8"/>
<stop offset="0.4892" stop-color="#EEDEBC"/>
<stop offset="0.5877" stop-color="#EBDAB8"/>
<stop offset="0.6903" stop-color="#E3CEAB"/>
<stop offset="0.7944" stop-color="#D5B997"/>
<stop offset="0.8616" stop-color="#C9A885"/>
<stop offset="1" stop-color="#9A7A5F"/>
</linearGradient>
</defs>
</svg>
